<svg id="586aadec-4ec3-4932-b283-6e67f3a144bb" data-name="Layer 1" xmlns="http://www.w3.org/2000/svg" xmlns:xlink="http://www.w3.org/1999/xlink" viewBox="0 0 82 119"><defs><clipPath id="3ec70aa1-dd8c-4693-ae72-9ff5bdbc2163" transform="translate(-0.07 -0.12)"><path d="M82.15,68.77A32.57,32.57,0,0,1,49.62,101.3H37.8v18H34.16V75.94A38.07,38.07,0,1,1,64.65,10.82l.89.87L63,14.3l-.89-.87A34.42,34.42,0,1,0,64,60.77l.82-.94,2.74,2.4-.82.94a38.1,38.1,0,0,1-28.63,13H37.8V97.61H49.62a28.84,28.84,0,0,0,0-57.68H37.8V67.55a16.32,16.32,0,0,1-2.08-.09,9.45,9.45,0,0,1-1.56-.24V36.28h0v0H49.62A32.57,32.57,0,0,1,82.15,68.77Z" style="fill:none"/></clipPath><linearGradient id="d1936957-fcaa-42d7-a704-643114d1871a" x1="-23.08" y1="147.23" x2="65.22" y2="-28" gradientTransform="translate(31.81 2.75) scale(0.44 0.95)" gradientUnits="userSpaceOnUse"><stop offset="0" stop-color="#f0e1b2"/><stop offset="0.18" stop-color="#e6d7a6"/><stop offset="0.5" stop-color="#cdbe87"/><stop offset="0.69" stop-color="#bbad71"/><stop offset="0.9" stop-color="#857335"/><stop offset="1" stop-color="#6f5b1d"/></linearGradient></defs><title>logo--cp-gold</title><g style="clip-path:url(#3ec70aa1-dd8c-4693-ae72-9ff5bdbc2163)"><rect width="82" height="119" style="fill:url(#d1936957-fcaa-42d7-a704-643114d1871a)"/></g></svg>