<svg id="d021363c-de1b-43c9-ba67-ef97975a787c" data-name="Layer 1" xmlns="http://www.w3.org/2000/svg" xmlns:xlink="http://www.w3.org/1999/xlink" viewBox="0 0 134.79 89.86"><defs><clipPath id="52a851db-2f4d-49b4-9437-65352e6a5408" transform="translate(52.36 2.1)"><path d="M59,49.36A23.38,23.38,0,0,1,35.62,72.71H27.13V85.66H24.52V54.51A27.33,27.33,0,1,1,46.41,7.77l.64.63-1.83,1.87-.64-.63a24.71,24.71,0,1,0,1.33,34l.59-.67,2,1.72-.59.67a27.35,27.35,0,0,1-20.55,9.31h-.19V70.06h8.48a20.7,20.7,0,0,0,0-41.4H27.13V48.49a11.71,11.71,0,0,1-1.49-.07,6.78,6.78,0,0,1-1.12-.17V26h0v0h11.1A23.38,23.38,0,0,1,59,49.36Z" style="fill:none"/></clipPath></defs><title>logo--cp-gold</title><g style="clip-path:url(#52a851db-2f4d-49b4-9437-65352e6a5408)"><image width="3000" height="2000" transform="scale(0.04)" xlink:href="/wp-content/themes/chrisapappas/app/img/logo-bg.jpg"/></g></svg>