<svg id="2883d00d-d35b-4c97-8790-02f15ecd9d57" data-name="Layer 1" xmlns="http://www.w3.org/2000/svg" viewBox="0 0 607.02 42.37"><title>logo--full-text</title><path d="M34.76,36.2A20.39,20.39,0,0,1,20,42.37C8.33,42.37,0,32.9,0,21.21S8.33,0,20,0A20.25,20.25,0,0,1,34.7,6.17L31.94,8.93A16.7,16.7,0,0,0,20,4C10.49,4,4,11.69,4,21.21S10.49,38.41,20,38.41a16.64,16.64,0,0,0,12-5Zm53.33,5.57h-4V23.13H61.48V41.77h-4V.48h4V19.42H84.13V.48h4Zm54.17,0h-4.85L126,25.65h-7V41.77h-4V.48H130.4c8.39,0,11.45,6.29,11.45,12.64s-2.94,12.28-11,12.52ZM119.07,4.43V21.69h11c5.81,0,7.79-4.19,7.79-8.57s-2-8.69-7.49-8.69Zm51.35,37.33h-4V.48h4Zm37.75-3.36c6.23,0,9.47-3.54,10.13-6.77.78-5.09-3.18-7.67-7.85-8.75l-5.57-1.26c-8.57-1.92-9.71-6.89-9.71-10.37C195.17,4.55,201.52,0,208.12,0c7.31,0,12.94,4.61,12.94,11.81h-4c0-4.79-3.9-7.85-9-7.85-4.55,0-9,2.94-9,7.31,0,2.16.78,5.21,6.59,6.53l5.63,1.26c6.59,1.5,12,5.39,10.85,13.3-1,4.79-5.51,10-14,10-8.15,0-13.36-6.41-13.36-12.46h4C198.77,34,202.42,38.41,208.18,38.41Zm32.9,3.36L257,.48h4.19L277,41.77h-4.25l-4.19-10.85H249.47l-4.13,10.85ZM259.05,6,250.9,27.21h16.3ZM344.45.48c8.39,0,11.63,6.29,11.63,12.64s-3.24,12.52-11.63,12.52H332.22V41.77h-4V.48Zm-12.22,4V21.69h11.93c5.81,0,8-4.19,8-8.57S350,4.43,344.45,4.43Zm39.61,37.33L387.71.48h4.19l15.88,41.29h-4.25l-4.19-10.85H380.22l-4.13,10.85ZM389.81,6l-8.15,21.21H398ZM446.14.48c8.39,0,11.63,6.29,11.63,12.64s-3.24,12.52-11.63,12.52H433.91V41.77h-4V.48Zm-12.22,4V21.69h11.93c5.81,0,8-4.19,8-8.57s-2.16-8.69-7.67-8.69Zm63.22-4c8.39,0,11.63,6.29,11.63,12.64s-3.24,12.52-11.63,12.52H484.91V41.77h-4V.48Zm-12.22,4V21.69h11.93c5.81,0,8-4.19,8-8.57s-2.16-8.69-7.67-8.69Zm39.61,37.33L540.4.48h4.19l15.88,41.29h-4.25L552,30.92H532.91l-4.13,10.85ZM542.5,6l-8.15,21.21h16.3Zm50.34,32.42c6.23,0,9.47-3.54,10.13-6.77.78-5.09-3.18-7.67-7.85-8.75l-5.57-1.26c-8.57-1.92-9.71-6.89-9.71-10.37C579.83,4.55,586.18,0,592.77,0c7.31,0,12.94,4.61,12.94,11.81h-4c0-4.79-3.9-7.85-9-7.85-4.55,0-9,2.94-9,7.31,0,2.16.78,5.21,6.59,6.53L596,19.06c6.59,1.5,12,5.39,10.85,13.3-1,4.79-5.51,10-14,10-8.15,0-13.36-6.41-13.36-12.46h4C583.43,34,587.08,38.41,592.83,38.41Z"/></svg>