<svg id="Layer_1" data-name="Layer 1" xmlns="http://www.w3.org/2000/svg" viewBox="0 0 16.96 16.96"><title>social--instagram</title><path d="M17.67,9.19q0,2.53-.05,3.5a5.18,5.18,0,0,1-1.37,3.55,5.18,5.18,0,0,1-3.56,1.37q-1,.05-3.5.05t-3.5-.05a5.18,5.18,0,0,1-3.55-1.37A5.17,5.17,0,0,1,.76,12.69q-.06-1-.06-3.5t.06-3.5A5.18,5.18,0,0,1,2.13,2.13,5.18,5.18,0,0,1,5.69.76q1-.05,3.5-.06t3.5.06a5.18,5.18,0,0,1,3.56,1.37,5.18,5.18,0,0,1,1.37,3.56Q17.67,6.66,17.67,9.19ZM10,2.22H7.18l-1.07,0A8.79,8.79,0,0,0,5,2.37a4.45,4.45,0,0,0-.79.2A2.89,2.89,0,0,0,2.57,4.18a4.37,4.37,0,0,0-.2.79,8.53,8.53,0,0,0-.11,1.14c0,.45,0,.8,0,1.07s0,.65,0,1.17,0,.79,0,.84,0,.33,0,.84,0,.9,0,1.17,0,.62,0,1.07a8.53,8.53,0,0,0,.11,1.14,4.37,4.37,0,0,0,.2.79A2.89,2.89,0,0,0,4.19,15.8,4.37,4.37,0,0,0,5,16a8.53,8.53,0,0,0,1.14.11l1.07,0h4l1.07,0A8.52,8.52,0,0,0,13.4,16a4.38,4.38,0,0,0,.79-.2,2.89,2.89,0,0,0,1.61-1.61,4.54,4.54,0,0,0,.2-.79,8.87,8.87,0,0,0,.11-1.14c0-.45,0-.8,0-1.07s0-.65,0-1.17,0-.79,0-.84,0-.33,0-.84,0-.9,0-1.17,0-.62,0-1.07A8.87,8.87,0,0,0,16,5a4.54,4.54,0,0,0-.2-.79,2.89,2.89,0,0,0-1.61-1.61,4.46,4.46,0,0,0-.79-.2,8.77,8.77,0,0,0-1.14-.11l-1.07,0Zm2.24,3.88a4.2,4.2,0,0,1,1.27,3.08,4.34,4.34,0,0,1-4.35,4.35A4.33,4.33,0,0,1,4.84,9.19,4.34,4.34,0,0,1,9.19,4.84,4.19,4.19,0,0,1,12.27,6.11Zm-1.08,5.08a2.83,2.83,0,0,0,0-4,2.83,2.83,0,0,0-4,0,2.83,2.83,0,0,0,0,4,2.83,2.83,0,0,0,4,0Zm3.25-7.24a1,1,0,0,1,0,1.44,1,1,0,0,1-1.73-.72,1,1,0,0,1,1.73-.72Z" transform="translate(-0.71 -0.71)"/></svg>