<svg id="fb806e1d-da90-46cd-8414-dc10db6bcbbd" data-name="Layer 1" xmlns="http://www.w3.org/2000/svg" viewBox="0 0 12.79688 9">
  <title>social--youtube</title>
  <path d="M12.53906,1.40625a10.5909,10.5909,0,0,1,.23438,1.92187L12.79688,4.5l-.02344,1.17188a10.71548,10.71548,0,0,1-.23438,1.94531,1.66353,1.66353,0,0,1-1.14844,1.125,16.67068,16.67068,0,0,1-2.85937.23437L6.39844,9,4.26562,8.97656a16.67079,16.67079,0,0,1-2.85937-.23437,1.66358,1.66358,0,0,1-1.14844-1.125A10.71567,10.71567,0,0,1,.02344,5.67188L0,4.5q0-.51562.02344-1.17188A10.59108,10.59108,0,0,1,.25781,1.40625,1.6382,1.6382,0,0,1,1.40625.25781,16.67079,16.67079,0,0,1,4.26562.02344L6.39844,0,8.53125.02344a16.67068,16.67068,0,0,1,2.85937.23437,1.63815,1.63815,0,0,1,1.14844,1.14844ZM5.08594,6.42188,8.4375,4.5,5.08594,2.60156Z"/>
</svg>
