<svg id="Layer_1" data-name="Layer 1" xmlns="http://www.w3.org/2000/svg" viewBox="0 0 17.4 14.13"><title>social--twitter</title><path d="M17.89,3.8A7.46,7.46,0,0,1,16.1,5.64q0,.15,0,.46A10.11,10.11,0,0,1,15.69,9a10.35,10.35,0,0,1-1.28,2.74,10.78,10.78,0,0,1-2,2.32,9.09,9.09,0,0,1-2.85,1.61,10.45,10.45,0,0,1-3.57.6,9.9,9.9,0,0,1-5.48-1.6,7.65,7.65,0,0,0,.86,0,7,7,0,0,0,4.43-1.52A3.57,3.57,0,0,1,2.44,10.7a4.48,4.48,0,0,0,.67.06,3.69,3.69,0,0,0,.94-.12A3.51,3.51,0,0,1,2,9.4a3.45,3.45,0,0,1-.81-2.27v0a3.54,3.54,0,0,0,1.61.45A3.56,3.56,0,0,1,1.65,6.27a3.47,3.47,0,0,1-.43-1.7,3.49,3.49,0,0,1,.49-1.8A10.1,10.1,0,0,0,5,5.41a9.94,9.94,0,0,0,4.1,1.1A3.92,3.92,0,0,1,9,5.69a3.44,3.44,0,0,1,1-2.52,3.57,3.57,0,0,1,5.13.08,7,7,0,0,0,2.26-.86,3.46,3.46,0,0,1-1.57,2A7.09,7.09,0,0,0,17.89,3.8Z" transform="translate(-0.49 -2.12)"/></svg>