<svg data-name="Layer 1" xmlns="http://www.w3.org/2000/svg" viewBox="0 0 82 119"><defs><clipPath id="a" transform="translate(-.07 -.12)"><path d="M82.15 68.77a32.57 32.57 0 0 1-32.53 32.53H37.8v18h-3.64V75.94a38.07 38.07 0 1 1 30.49-65.12l.89.87L63 14.3l-.89-.87A34.42 34.42 0 1 0 64 60.77l.82-.94 2.74 2.4-.82.94a38.1 38.1 0 0 1-28.63 13h-.31v21.44h11.82a28.84 28.84 0 0 0 0-57.68H37.8v27.62a16.32 16.32 0 0 1-2.08-.09 9.45 9.45 0 0 1-1.56-.24V36.28h15.46a32.57 32.57 0 0 1 32.53 32.49z" fill="none"/></clipPath><linearGradient id="b" x1="-23.08" y1="147.23" x2="65.22" y2="-28" gradientTransform="matrix(.44 0 0 .95 31.81 2.75)" gradientUnits="userSpaceOnUse"><stop offset="0" stop-color="#f0e1b2"/><stop offset=".18" stop-color="#e6d7a6"/><stop offset=".5" stop-color="#cdbe87"/><stop offset=".69" stop-color="#bbad71"/><stop offset=".9" stop-color="#857335"/><stop offset="1" stop-color="#6f5b1d"/></linearGradient></defs><g clip-path="url(#a)"><path fill="url(#b)" d="M0 0h82v119H0z"/></g></svg>