<svg data-name="Layer 1" xmlns="http://www.w3.org/2000/svg" viewBox="0 0 607.02 42.37"><title>logo--full-text</title><path d="M34.76 36.2A20.39 20.39 0 0 1 20 42.37c-11.67 0-20-9.47-20-21.16S8.33 0 20 0a20.25 20.25 0 0 1 14.7 6.17l-2.76 2.76A16.7 16.7 0 0 0 20 4C10.49 4 4 11.69 4 21.21s6.49 17.2 16 17.2a16.64 16.64 0 0 0 12-5zm53.33 5.57h-4V23.13H61.48v18.64h-4V.48h4v18.94h22.65V.48h4zm54.17 0h-4.85L126 25.65h-7v16.12h-4V.48h15.4c8.39 0 11.45 6.29 11.45 12.64s-2.94 12.28-11 12.52zM119.07 4.43v17.26h11c5.81 0 7.79-4.19 7.79-8.57s-2-8.69-7.49-8.69zm51.35 37.33h-4V.48h4zm37.75-3.36c6.23 0 9.47-3.54 10.13-6.77.78-5.09-3.18-7.67-7.85-8.75l-5.57-1.26c-8.57-1.92-9.71-6.89-9.71-10.37 0-6.7 6.35-11.25 12.95-11.25 7.31 0 12.94 4.61 12.94 11.81h-4c0-4.79-3.9-7.85-9-7.85-4.55 0-9 2.94-9 7.31 0 2.16.78 5.21 6.59 6.53l5.63 1.26c6.59 1.5 12 5.39 10.85 13.3-1 4.79-5.51 10-14 10-8.15 0-13.36-6.41-13.36-12.46h4c0 4.1 3.65 8.51 9.41 8.51zm32.9 3.36L257 .48h4.19L277 41.77h-4.25l-4.19-10.85h-19.09l-4.13 10.85zM259.05 6l-8.15 21.21h16.3zm85.4-5.52c8.39 0 11.63 6.29 11.63 12.64s-3.24 12.52-11.63 12.52h-12.23v16.13h-4V.48zm-12.22 4v17.21h11.93c5.81 0 8-4.19 8-8.57s-2.16-8.69-7.71-8.69zm39.61 37.33L387.71.48h4.19l15.88 41.29h-4.25l-4.19-10.85h-19.12l-4.13 10.85zM389.81 6l-8.15 21.21H398zM446.14.48c8.39 0 11.63 6.29 11.63 12.64s-3.24 12.52-11.63 12.52h-12.23v16.13h-4V.48zm-12.22 4v17.21h11.93c5.81 0 8-4.19 8-8.57s-2.16-8.69-7.67-8.69zm63.22-4c8.39 0 11.63 6.29 11.63 12.64s-3.24 12.52-11.63 12.52h-12.23v16.13h-4V.48zm-12.22 4v17.21h11.93c5.81 0 8-4.19 8-8.57s-2.16-8.69-7.67-8.69zm39.61 37.33L540.4.48h4.19l15.88 41.29h-4.25L552 30.92h-19.09l-4.13 10.85zM542.5 6l-8.15 21.21h16.3zm50.34 32.42c6.23 0 9.47-3.54 10.13-6.77.78-5.09-3.18-7.67-7.85-8.75l-5.57-1.26c-8.57-1.92-9.71-6.89-9.71-10.37C579.83 4.55 586.18 0 592.77 0c7.31 0 12.94 4.61 12.94 11.81h-4c0-4.79-3.9-7.85-9-7.85-4.55 0-9 2.94-9 7.31 0 2.16.78 5.21 6.59 6.53l5.7 1.26c6.59 1.5 12 5.39 10.85 13.3-1 4.79-5.51 10-14 10-8.15 0-13.36-6.41-13.36-12.46h4c-.06 4.1 3.59 8.51 9.34 8.51z"/></svg>