<svg data-name="Layer 1" xmlns="http://www.w3.org/2000/svg" viewBox="0 0 82.15 119.33"><defs><clipPath id="a"><path d="M82.15 68.77a32.57 32.57 0 0 1-32.53 32.53H37.8v18h-3.64V75.94a38.07 38.07 0 1 1 30.49-65.12l.89.87L63 14.3l-.89-.87A34.42 34.42 0 1 0 64 60.77l.82-.94 2.74 2.4-.82.94a38.1 38.1 0 0 1-28.63 13h-.31v21.44h11.82a28.84 28.84 0 0 0 0-57.68H37.8v27.62a16.32 16.32 0 0 1-2.08-.09 9.45 9.45 0 0 1-1.56-.24V36.28h15.46a32.57 32.57 0 0 1 32.53 32.49z" fill="none"/></clipPath><radialGradient id="b" cx="21.07" cy="59.62" r="79.82" gradientTransform="matrix(1 0 0 .8 0 11.92)" gradientUnits="userSpaceOnUse"><stop offset="0" stop-color="#e8d69e"/><stop offset=".23" stop-color="#dccb92"/><stop offset=".64" stop-color="#bdae73"/><stop offset=".66" stop-color="#bbad71"/><stop offset=".85" stop-color="#ae984b"/><stop offset="1" stop-color="#a68b33"/></radialGradient></defs><title>logo--cp-gold</title><g clip-path="url(#a)"><path fill="url(#b)" d="M-72.93-2.88h188v125h-188z"/></g></svg>