<svg data-name="Layer 1" xmlns="http://www.w3.org/2000/svg" xmlns:xlink="http://www.w3.org/1999/xlink" viewBox="0 0 134.79 89.86"><defs><clipPath id="a" transform="translate(52.36 2.1)"><path d="M59 49.36a23.38 23.38 0 0 1-23.38 23.35h-8.49v12.95h-2.61V54.51A27.33 27.33 0 1 1 46.41 7.77l.64.63-1.83 1.87-.64-.63a24.71 24.71 0 1 0 1.33 34l.59-.67 2 1.72-.59.67a27.35 27.35 0 0 1-20.55 9.31h-.19v15.39h8.48a20.7 20.7 0 0 0 0-41.4h-8.52v19.83a11.71 11.71 0 0 1-1.49-.07 6.78 6.78 0 0 1-1.12-.17V26h11.1A23.38 23.38 0 0 1 59 49.36z" fill="none"/></clipPath></defs><title>logo--cp-gold</title><g clip-path="url(#a)"><image width="3000" height="2000" transform="scale(.04)" xlink:href="/wp-content/themes/chrisapappas/app/img/logo-bg.jpg"/></g></svg>