<svg data-name="Layer 1" xmlns="http://www.w3.org/2000/svg" viewBox="0 0 17.4 14.13"><title>social--twitter</title><path d="M17.4 1.68a7.46 7.46 0 0 1-1.79 1.84v.46a10.11 10.11 0 0 1-.41 2.9 10.35 10.35 0 0 1-1.28 2.74 10.78 10.78 0 0 1-2 2.32 9.09 9.09 0 0 1-2.85 1.61 10.45 10.45 0 0 1-3.57.6 9.9 9.9 0 0 1-5.48-1.6 7.65 7.65 0 0 0 .86 0 7 7 0 0 0 4.43-1.52 3.57 3.57 0 0 1-3.36-2.45 4.48 4.48 0 0 0 .67.06 3.69 3.69 0 0 0 .94-.12 3.51 3.51 0 0 1-2.05-1.24A3.45 3.45 0 0 1 .7 5.01a3.54 3.54 0 0 0 1.61.45 3.56 3.56 0 0 1-1.15-1.31 3.47 3.47 0 0 1-.43-1.7 3.49 3.49 0 0 1 .49-1.8 10.1 10.1 0 0 0 3.29 2.64 9.94 9.94 0 0 0 4.1 1.1 3.92 3.92 0 0 1-.1-.82 3.44 3.44 0 0 1 1-2.52 3.57 3.57 0 0 1 5.13.08A7 7 0 0 0 16.9.27a3.46 3.46 0 0 1-1.57 2 7.09 7.09 0 0 0 2.07-.59z"/></svg>