<svg data-name="Layer 1" xmlns="http://www.w3.org/2000/svg" viewBox="0 0 18.37 18.37"><path d="M18.37 17A1.43 1.43 0 0 1 17 18.37a1.31 1.31 0 0 1-1-.37l-3.79-3.78a7.57 7.57 0 0 1-4.41 1.37 7.62 7.62 0 0 1-3-.61 7.61 7.61 0 0 1-4.19-4.19 7.74 7.74 0 0 1 0-6A7.61 7.61 0 0 1 4.75.61a7.75 7.75 0 0 1 6 0 7.61 7.61 0 0 1 4.14 4.14 7.64 7.64 0 0 1 .61 3 7.56 7.56 0 0 1-1.37 4.41L18 16a1.35 1.35 0 0 1 .37 1zm-7.11-5.69a4.76 4.76 0 0 0 1.45-3.49 4.76 4.76 0 0 0-1.45-3.49 4.76 4.76 0 0 0-3.5-1.45 4.76 4.76 0 0 0-3.5 1.45 4.76 4.76 0 0 0-1.43 3.44 4.76 4.76 0 0 0 1.45 3.49 4.76 4.76 0 0 0 3.5 1.45 4.76 4.76 0 0 0 3.49-1.44z"/></svg>