<svg data-name="Layer 1" xmlns="http://www.w3.org/2000/svg" viewBox="0 0 16.96 16.96"><title>social--pinterest</title><path d="M15.82 4.22a8.3 8.3 0 0 1 1.14 4.26 8.3 8.3 0 0 1-1.14 4.26 8.44 8.44 0 0 1-3.09 3.09 8.48 8.48 0 0 1-6.66.78 6.84 6.84 0 0 0 .86-1.81l.6-2.33a1.84 1.84 0 0 0 .81.75 2.61 2.61 0 0 0 1.26.32 4 4 0 0 0 2.38-.76 4.9 4.9 0 0 0 1.62-2.08 7.43 7.43 0 0 0 .57-3 4.54 4.54 0 0 0-.66-2.36 5 5 0 0 0-1.9-1.8 5.68 5.68 0 0 0-2.82-.7 7.1 7.1 0 0 0-2.17.32 5.63 5.63 0 0 0-1.71.85 5.82 5.82 0 0 0-1.2 1.22 5 5 0 0 0-.74 1.43 4.8 4.8 0 0 0-.24 1.48 4.41 4.41 0 0 0 .44 2 2.49 2.49 0 0 0 1.31 1.25q.33.13.42-.22l.09-.34c0-.18.07-.29.09-.33a.5.5 0 0 0-.12-.47 2.51 2.51 0 0 1-.57-1.67 4 4 0 0 1 4.18-4.07 3.58 3.58 0 0 1 2.6.91 3.13 3.13 0 0 1 .93 2.35 6.3 6.3 0 0 1-.76 3.19 2.22 2.22 0 0 1-1.94 1.31 1.35 1.35 0 0 1-1.11-.48 1.25 1.25 0 0 1-.25-1.15c.06-.26.16-.6.29-1s.28-.84.36-1.13a3.41 3.41 0 0 0 .13-.83 1.4 1.4 0 0 0-.3-.92 1 1 0 0 0-.85-.36 1.41 1.41 0 0 0-1.16.63 2.53 2.53 0 0 0-.47 1.48 2.94 2.94 0 0 0 .25 1.39l-1.07 4.61a7.32 7.32 0 0 0-.14 2 8.45 8.45 0 0 1-3.68-3.1A8.22 8.22 0 0 1 0 8.48a8.29 8.29 0 0 1 1.13-4.26 8.44 8.44 0 0 1 3.09-3.09A8.29 8.29 0 0 1 8.48 0a8.3 8.3 0 0 1 4.26 1.14 8.45 8.45 0 0 1 3.08 3.08z"/></svg>