<svg data-name="Layer 1" xmlns="http://www.w3.org/2000/svg" viewBox="0 0 16.96 16.96"><path d="M16.96 8.48q0 2.53-.05 3.5a5.18 5.18 0 0 1-1.37 3.55 5.18 5.18 0 0 1-3.56 1.37q-1 .05-3.5.05t-3.5-.05a5.18 5.18 0 0 1-3.55-1.37 5.17 5.17 0 0 1-1.38-3.55q-.06-1-.06-3.5t.06-3.5a5.18 5.18 0 0 1 1.37-3.56A5.18 5.18 0 0 1 4.98.05q1-.05 3.5-.06t3.5.06a5.18 5.18 0 0 1 3.56 1.37 5.18 5.18 0 0 1 1.37 3.56q.05.97.05 3.5zM9.29 1.51H5.4a8.79 8.79 0 0 0-1.11.15 4.45 4.45 0 0 0-.79.2 2.89 2.89 0 0 0-1.64 1.61 4.37 4.37 0 0 0-.2.79 8.53 8.53 0 0 0-.11 1.14v6.16a8.53 8.53 0 0 0 .11 1.14 4.37 4.37 0 0 0 .2.79 2.89 2.89 0 0 0 1.62 1.6 4.37 4.37 0 0 0 .81.2 8.53 8.53 0 0 0 1.14.11H11.57a8.52 8.52 0 0 0 1.12-.11 4.38 4.38 0 0 0 .79-.2 2.89 2.89 0 0 0 1.61-1.61 4.54 4.54 0 0 0 .2-.79 8.87 8.87 0 0 0 .11-1.14v-1.07-1.17-.84-.84-1.17-1.07a8.87 8.87 0 0 0-.11-1.1 4.54 4.54 0 0 0-.2-.79 2.89 2.89 0 0 0-1.61-1.61 4.46 4.46 0 0 0-.79-.2 8.77 8.77 0 0 0-1.14-.11h-1.07zm2.24 3.88a4.2 4.2 0 0 1 1.27 3.08 4.34 4.34 0 0 1-4.35 4.35 4.33 4.33 0 0 1-4.32-4.34 4.34 4.34 0 0 1 4.35-4.35 4.19 4.19 0 0 1 3.08 1.27zm-1.08 5.08a2.83 2.83 0 0 0 0-4 2.83 2.83 0 0 0-4 0 2.83 2.83 0 0 0 0 4 2.83 2.83 0 0 0 4 0zm3.25-7.24a1 1 0 0 1 0 1.44 1 1 0 0 1-1.73-.72 1 1 0 0 1 1.73-.72z"/></svg>